<svg width="20" height="6" fill="none" xmlns="http://www.w3.org/2000/svg"><g clip-path="url(#clip0_2181_11341)" fill="#0068FF"><path fill-rule="evenodd" clip-rule="evenodd" d="M6.259 2.137v-.225h.675V5.07h-.386a.288.288 0 01-.29-.286 1.644 1.644 0 01-.97.316 1.643 1.643 0 01-1.646-1.64c0-.905.737-1.639 1.646-1.639.363 0 .699.118.97.316zM3.467.897v.102a.85.85 0 01-.15.53l-.015.017c-.027.03-.091.103-.121.142l-2.167 2.71h2.453v.384c0 .16-.13.288-.289.288H0v-.18a.65.65 0 01.125-.424l2.31-2.85H.096V.897h3.371zM7.752 5.07a.24.24 0 01-.24-.24V.897h.722V5.07h-.482zm2.618-3.269c.915 0 1.657.74 1.657 1.65 0 .912-.742 1.652-1.657 1.652-.916 0-1.657-.74-1.657-1.651s.741-1.65 1.657-1.65zM5.288 4.425a.966.966 0 00.968-.965.966.966 0 00-.968-.963.966.966 0 00-.969.963c0 .533.434.965.969.965zm5.082-.002a.973.973 0 00.974-.971.973.973 0 00-.974-.971.973.973 0 00-.975.97c0 .537.436.972.975.972z"/><path d="M12.835 1.409a.69.69 0 00-.207.507c0 .197.069.366.207.506.138.14.307.21.506.21a.685.685 0 00.507-.21.687.687 0 00.209-.506c0-.2-.069-.37-.209-.507a.685.685 0 00-.507-.21.684.684 0 00-.506.21zm.885.124a.52.52 0 01.154.383.526.526 0 01-.533.536.516.516 0 01-.38-.154.533.533 0 01-.152-.382.53.53 0 01.532-.539c.152 0 .278.052.379.156zm1.324.087v-.05c0-.08.02-.14.061-.175.042-.033.107-.05.198-.05.053 0 .122.007.203.017v-.156a.907.907 0 00-.203-.026c-.286 0-.43.13-.43.39v.05h-.367v-.03c0-.163.087-.238.26-.225V1.2c-.138-.01-.244.02-.32.089-.074.067-.111.167-.111.301v.03h-.158v.165h.158v.82h.171v-.82h.367v.82h.171v-.82h.365v.82h.172V1.62h-.537zm.889.863a.504.504 0 00.37.148.487.487 0 00.444-.256l-.146-.085a.312.312 0 01-.297.172.338.338 0 01-.347-.35.338.338 0 01.347-.35c.065 0 .124.016.177.047a.296.296 0 01.115.126l.143-.083a.446.446 0 00-.173-.189.51.51 0 00-.262-.069.498.498 0 00-.371.15.5.5 0 00-.148.369c0 .146.05.27.148.37zm.987-1.076c.022.022.05.033.083.033.032 0 .06-.011.081-.033a.112.112 0 00.034-.081.12.12 0 00-.034-.083.112.112 0 00-.08-.033.113.113 0 00-.083.033.12.12 0 00-.034.083c0 .032.012.06.034.08zm.168 1.199V1.62h-.171v.986h.171zm1.078-.816a.417.417 0 00-.372-.196.472.472 0 00-.353.152.51.51 0 00-.146.367c0 .144.049.268.146.368.096.1.213.15.353.15a.417.417 0 00.372-.195v.17h.172V1.62h-.172v.17zm-.1.575a.339.339 0 01-.25.1.338.338 0 01-.25-.1.35.35 0 01-.1-.252c0-.1.034-.184.1-.25a.332.332 0 01.25-.103c.1 0 .183.033.25.102.067.067.1.15.1.25a.35.35 0 01-.1.253zm.704.241v-1.44h-.172v1.44h.171zm-4.965 2.365l-.515-1.38h-.207l-.514 1.38h.195l.112-.31h.621l.113.31h.195zm-.62-1.16l.249.68h-.495l.247-.68zm.835 1.039a.504.504 0 00.37.147.526.526 0 00.262-.069.487.487 0 00.182-.187l-.146-.085a.312.312 0 01-.298.172.337.337 0 01-.248-.101.35.35 0 01-.1-.248.346.346 0 01.525-.304.293.293 0 01.115.126l.144-.083a.445.445 0 00-.174-.189.51.51 0 00-.262-.069.498.498 0 00-.37.15.5.5 0 00-.149.369c0 .145.05.27.148.37zm1.062 0a.503.503 0 00.37.147.526.526 0 00.263-.069.486.486 0 00.181-.187l-.146-.085a.312.312 0 01-.297.172.338.338 0 01-.347-.35.338.338 0 01.347-.35c.065 0 .124.015.177.047a.294.294 0 01.115.126l.144-.083a.446.446 0 00-.174-.189.51.51 0 00-.262-.069.497.497 0 00-.37.15.499.499 0 00-.149.369c0 .145.05.27.148.37zm1.433.147a.5.5 0 00.37-.15c.1-.1.151-.224.151-.368a.505.505 0 00-.152-.37.5.5 0 00-.369-.149.5.5 0 00-.368.15.5.5 0 00-.15.369.5.5 0 00.15.368c.1.1.223.15.369.15zm.249-.268a.338.338 0 01-.248.1.336.336 0 01-.247-.1.339.339 0 01-.1-.25c0-.101.033-.184.1-.25a.333.333 0 01.247-.101c.098 0 .18.033.248.1.067.067.1.15.1.25a.34.34 0 01-.1.251zm1.154-.221c0 .109-.025.19-.078.245a.269.269 0 01-.207.08.235.235 0 01-.18-.067.256.256 0 01-.065-.185v-.595h-.171v.605a.42.42 0 00.104.298.364.364 0 00.278.108c.144 0 .25-.055.32-.167v.141h.171v-.985h-.172v.522zm1.202-.439a.364.364 0 00-.278-.109c-.144 0-.25.055-.32.168v-.142h-.17v.985h.17V4.45c0-.108.026-.19.08-.246a.264.264 0 01.206-.08c.077 0 .137.022.18.068a.256.256 0 01.065.185v.595h.171v-.605a.418.418 0 00-.104-.297zm.88-.083h-.262V3.71l-.171.05v.226h-.196v.165h.196v.535c0 .12.035.203.104.248.069.045.177.057.33.037v-.153a.657.657 0 01-.198-.006c-.043-.016-.065-.057-.065-.126V4.15H20v-.165z"/></g><defs><clipPath id="clip0_2181_11341"><path fill="#fff" transform="translate(0 .867)" d="M0 0h20v4.267H0z"/></clipPath></defs></svg>