<svg width="40" height="40" fill="none" xmlns="http://www.w3.org/2000/svg"><circle cx="20" cy="20" r="20" fill="#FEE4E2"/><path d="M24.67 21.13C26.04 22.06 27 23.32 27 25v3h4v-3c0-2.18-3.57-3.47-6.33-3.87zM23 20c2.21 0 4-1.79 4-4s-1.79-4-4-4c-.47 0-.91.1-1.33.24a5.98 5.98 0 010 7.52c.42.14.86.24 1.33.24zm-6 0c2.21 0 4-1.79 4-4s-1.79-4-4-4-4 1.79-4 4 1.79 4 4 4zm0-6c1.1 0 2 .9 2 2s-.9 2-2 2-2-.9-2-2 .9-2 2-2zm0 7c-2.67 0-8 1.34-8 4v3h16v-3c0-2.66-5.33-4-8-4zm6 5H11v-.99c.2-.72 3.3-2.01 6-2.01s5.8 1.29 6 2v1z" fill="#F04438"/></svg>