<svg width="32" height="32" fill="none" xmlns="http://www.w3.org/2000/svg"><path d="M0 16C0 7.163 7.163 0 16 0s16 7.163 16 16-7.163 16-16 16S0 24.837 0 16z" fill="#000" fill-opacity=".05"/><path d="M19.5 14.5c0-1.781-.969-3.406-2.5-4.313a4.937 4.937 0 00-5 0A4.961 4.961 0 009.5 14.5c0 1.813.938 3.438 2.5 4.344a4.938 4.938 0 005 0c1.531-.907 2.5-2.532 2.5-4.344zm-.969 5.125A6.548 6.548 0 0114.5 21 6.495 6.495 0 018 14.5C8 10.937 10.906 8 14.5 8c3.563 0 6.5 2.938 6.5 6.5a6.597 6.597 0 01-1.406 4.063l4.187 4.156c.282.312.282.781 0 1.062-.312.313-.781.313-1.062 0l-4.188-4.156z" fill="#27272A"/></svg>